<?xml version="1.0" encoding="UTF-8"?>
<svg id="Layer_1" data-name="Layer 1" xmlns="http://www.w3.org/2000/svg" viewBox="0 0 1080 1080">
  <defs>
    <style>
      .cls-1 {
        fill: #7765ad;
      }
    </style>
  </defs>
  <path class="cls-1" d="M349.19,716.89h-57.33c-.96,0-1.75-.78-1.75-1.75v-282.23c0-.72.58-1.3,1.3-1.3h32.77c.34,0,.67.14.92.38l115.34,115.34c.69.69,1.82.68,2.5-.03l178.84-187.56-40.88-29.78c-2.68-1.95-1.95-6.13,1.23-7.05l135.33-39.36c2.4-.7,4.99-.03,6.76,1.73h0c1.52,1.52,2.23,3.65,1.94,5.78l-19.25,139.87c-.45,3.26-4.44,4.61-6.77,2.28l-32.28-32.28-222.76,222.76c-1.05,1.05-2.76,1.05-3.81,0l-91.6-91.6,1.25,183.03c0,.97-.78,1.76-1.75,1.76Z"/>
  <path class="cls-1" d="M750.83,611.05c17.28-7.91,29.29-25.36,29.29-45.59v-1.43c0-27.65-22.42-50.07-50.07-50.07h-87.63v-57.4c0-.66-.8-.98-1.26-.51l-58.8,60.97c-.39.41-.61.95-.61,1.52v196.53c0,1,.81,1.81,1.81,1.81h154.06c28.87,0,52.26-23.39,52.26-52.25v-3.03c0-24.31-16.57-44.73-39.06-50.57ZM648.87,548.28h58.75c13.36,0,24.64,10.54,24.86,23.9.11,6.88-2.63,13.1-7.11,17.6-4.41,4.41-10.48,7.12-17.19,7.12h-59.31v-48.62ZM734.98,675.4c-4.41,4.39-10.48,7.12-17.19,7.12h-68.92v-48.6h68.38c13.33,0,24.6,10.51,24.84,23.84.13,6.9-2.62,13.16-7.11,17.65Z"/>
</svg>