<?xml version="1.0" encoding="UTF-8"?>
<svg id="Layer_1" data-name="Layer 1" xmlns="http://www.w3.org/2000/svg" viewBox="0 0 1080 1080">
  <defs>
    <style>
      .cls-1 {
        fill: #fff;
      }
    </style>
  </defs>
  <polygon class="cls-1" points="339.07 716.89 278.24 716.89 278.24 431.62 312.85 431.62 429.83 548.6 609.91 359.75 562.46 325.19 709.48 282.43 714.75 287.7 693.94 438.9 655.98 400.94 431.31 625.61 337.81 532.11 339.07 716.89"/>
  <path class="cls-1" d="M738.95,611.05c17.28-7.91,29.29-25.36,29.29-45.59v-1.43c0-27.65-22.41-50.07-50.07-50.07h-87.63v-59.21l-60.67,62.91v199.23h155.88c28.87,0,52.26-23.39,52.26-52.25v-3.03c0-24.31-16.57-44.73-39.06-50.57ZM637,548.28h59.31c13.42,0,24.31,10.89,24.31,24.31,0,6.72-2.73,12.79-7.12,17.19-4.41,4.41-10.48,7.12-17.19,7.12h-59.31v-48.62ZM723.11,675.4c-4.41,4.39-10.48,7.12-17.19,7.12h-68.92v-48.6h68.92c13.42,0,24.31,10.88,24.31,24.29,0,6.72-2.73,12.8-7.12,17.19Z"/>
</svg>